<svg width="1224" height="546" viewBox="0 0 1224 546" fill="none" xmlns="http://www.w3.org/2000/svg">
<path d="M961.402 74.75L868.312 110.55V160.5L931.412 136.23C949.482 129.28 961.402 111.92 961.402 92.56V74.75Z" fill="#304FFE"/>
<path d="M871.219 424.021H945.449C947.169 424.021 948.56 422.631 948.56 420.911V171.491C948.56 169.771 947.169 168.381 945.449 168.381H871.219C869.499 168.381 868.109 169.771 868.109 171.491V420.911C868.099 422.621 869.499 424.021 871.219 424.021Z" fill="#304FFE"/>
<path d="M770.992 321.462C770.992 314.902 771.012 271.822 770.892 234.612H827.702C829.422 234.612 830.812 233.222 830.812 231.502V171.492C830.812 169.772 829.422 168.382 827.702 168.382H771.002C771.002 168.382 771.012 128.142 770.992 121.002C770.982 119.292 769.592 117.932 767.882 117.932H692.442C690.722 117.932 689.322 119.292 689.332 121.022C689.382 140.212 689.332 245.852 689.332 330.812C689.332 423.382 774.132 423.992 804.062 424.002H828.582C830.302 424.002 831.692 422.612 831.692 420.892V365.292C831.692 363.592 830.332 362.222 828.632 362.192C802.072 361.732 770.992 354.892 770.992 321.462Z" fill="#304FFE"/>
<path d="M62.1605 389.951C62.1605 406.311 53.3204 430.131 4.11044 430.591C2.40044 430.611 0.980469 431.971 0.980469 433.681V489.261C0.980469 490.981 2.37045 492.371 4.09045 492.371H28.6104C58.5404 492.351 143.34 491.271 143.34 398.711C143.34 313.151 143.29 192.201 143.34 171.461C143.34 169.741 141.95 168.371 140.23 168.371H65.3105C63.6005 168.371 62.2005 169.751 62.2005 171.461C62.1305 197.121 62.1605 374.401 62.1605 389.951Z" fill="#304FFE"/>
<path d="M327.651 330.851C327.761 352.191 314.911 364.371 292.461 364.371C270.011 364.371 257.341 352.181 257.341 330.801C257.341 315.491 257.441 192.561 257.341 171.451C257.331 169.741 255.941 168.371 254.231 168.371H180.001C178.281 168.371 176.881 169.741 176.891 171.471C176.951 186.751 176.891 264.851 176.891 339.291C176.891 433.151 264.091 433.481 292.501 433.481C320.911 433.481 408.111 433.481 408.111 339.291C408.111 264.851 408.111 171.491 408.111 171.491C408.111 169.771 406.721 168.381 405.001 168.381H330.771C329.051 168.381 327.661 169.771 327.661 171.491V330.851H327.651Z" fill="#304FFE"/>
<path d="M1072.25 261.581C1072.14 240.241 1084.99 228.061 1107.44 228.061C1129.89 228.061 1142.56 240.251 1142.56 261.631C1142.56 276.941 1142.46 399.871 1142.56 420.981C1142.57 422.691 1143.96 424.061 1145.67 424.061H1219.9C1221.62 424.061 1223.02 422.691 1223.01 420.961C1222.95 405.681 1223.01 327.581 1223.01 253.141C1223.01 159.281 1135.81 158.951 1107.4 158.951C1079 158.951 991.789 158.951 991.789 253.141C991.789 327.581 991.789 420.941 991.789 420.941C991.789 422.661 993.179 424.051 994.899 424.051H1069.13C1070.85 424.051 1072.24 422.661 1072.24 420.941V261.581H1072.25Z" fill="#304FFE"/>
<path d="M603.342 275.491C601.362 275.041 554.182 266.591 551.982 266.181C530.812 262.281 517.012 255.571 517.012 242.001C517.012 232.981 523.912 218.021 551.802 218.021C582.122 218.021 585.892 236.291 586.172 245.051C586.232 246.721 587.602 248.021 589.272 248.021H654.202C655.942 248.021 657.372 246.601 657.312 244.861C656.322 214.551 640.422 158.951 545.732 158.951C473.872 158.951 437.942 194.811 437.942 245.741C437.942 284.481 463.392 305.121 497.362 313.311C521.232 319.061 585.882 319.701 585.882 349.051C585.882 358.031 579.032 372.991 551.132 372.991C519.862 372.991 513.022 353.631 512.062 345.201C511.882 343.641 510.562 342.501 508.992 342.501H439.022C437.252 342.501 435.822 343.951 435.902 345.721C436.942 370.321 454.412 434.281 549.702 434.281C625.182 434.281 662.752 399.871 662.752 347.531C662.762 308.781 637.432 283.341 603.342 275.491Z" fill="#304FFE"/>
<path d="M988.622 0.720703L868.312 46.3207V96.2707L958.412 62.1207C976.592 55.2307 988.612 37.8107 988.612 18.3707V0.720703H988.622Z" fill="#304FFE"/>
<path d="M361.081 520.472H366.761V545.292H351.631V535.152H328.931V545.292H313.801V520.472H319.401C321.521 516.642 322.571 511.292 322.571 504.432V482.182H361.081V520.472V520.472ZM335.051 520.472H345.951V496.102H337.701V504.572C337.701 511.142 336.821 516.432 335.051 520.472Z" fill="#304FFE"/>
<path d="M421.951 528.371C416.531 533.691 409.881 536.351 402.011 536.351C394.141 536.351 387.501 533.691 382.071 528.371C376.641 523.051 373.941 516.481 373.941 508.661C373.941 500.841 376.651 494.271 382.071 488.951C387.491 483.631 394.141 480.971 402.011 480.971C409.881 480.971 416.521 483.631 421.951 488.951C427.381 494.271 430.091 500.841 430.091 508.661C430.091 516.481 427.381 523.051 421.951 528.371ZM392.751 517.861C395.201 520.311 398.281 521.531 402.021 521.531C405.761 521.531 408.841 520.311 411.291 517.861C413.741 515.411 414.961 512.351 414.961 508.671C414.961 504.991 413.731 501.921 411.291 499.481C408.841 497.031 405.761 495.811 402.021 495.811C398.281 495.811 395.201 497.031 392.751 499.481C390.301 501.931 389.081 504.991 389.081 508.671C389.081 512.351 390.301 515.411 392.751 517.861Z" fill="#304FFE"/>
<path d="M466.862 536.36C458.892 536.36 452.292 533.71 447.042 528.42C441.792 523.12 439.172 516.54 439.172 508.67C439.172 500.8 441.792 494.22 447.042 488.92C452.292 483.62 458.892 480.98 466.862 480.98C471.752 480.98 476.272 482.141 480.402 484.461C484.542 486.781 487.772 489.911 490.092 493.841L476.932 501.41C476.072 499.7 474.742 498.33 472.922 497.32C471.102 496.31 469.082 495.81 466.862 495.81C463.132 495.81 460.102 497.02 457.782 499.44C455.462 501.86 454.302 504.94 454.302 508.67C454.302 512.4 455.462 515.481 457.782 517.901C460.102 520.321 463.122 521.531 466.862 521.531C469.132 521.531 471.162 521.031 472.952 520.021C474.742 519.011 476.062 517.63 476.922 515.86L490.082 523.43C487.762 527.42 484.532 530.571 480.392 532.891C476.272 535.201 471.752 536.36 466.862 536.36Z" fill="#304FFE"/>
<path d="M537.002 482.182V496.862H524.512V535.152H509.382V496.862H496.902V482.182H537.002Z" fill="#304FFE"/>
<path d="M576.352 482.182H592.242L576.953 518.042C574.433 523.942 571.113 528.332 567.003 531.212C562.893 534.082 557.532 535.402 550.922 535.142V521.072C555.512 521.422 558.992 520.542 561.372 518.422L543.812 482.182H559.703L568.852 502.312L576.352 482.182Z" fill="#304FFE"/>
<path d="M642.93 482.182V535.152H627.8V496.862H616.45V535.152H601.32V482.182H642.93Z" fill="#304FFE"/>
<path d="M683.789 482.182H698.919V535.152H683.789V515.632H670.919V535.152H655.789V482.182H670.919V500.942H683.789V482.182Z" fill="#304FFE"/>
<path d="M742.432 535.152L740.612 528.342H725.322L723.512 535.152H707.242L724.112 482.182H741.822L758.702 535.152H742.432ZM728.582 516.232H737.362L732.972 499.962L728.582 516.232Z" fill="#304FFE"/>
<path d="M831.331 520.472H837.011V545.292H821.881V535.152H799.181V545.292H784.051V520.472H789.651C791.771 516.642 792.821 511.292 792.821 504.432V482.182H831.331V520.472V520.472ZM805.301 520.472H816.201V496.102H807.951V504.572C807.951 511.142 807.071 516.432 805.301 520.472Z" fill="#304FFE"/>
<path d="M892.201 528.371C886.781 533.691 880.131 536.351 872.261 536.351C864.391 536.351 857.751 533.691 852.321 528.371C846.891 523.051 844.191 516.481 844.191 508.661C844.191 500.841 846.901 494.271 852.321 488.951C857.741 483.631 864.391 480.971 872.261 480.971C880.131 480.971 886.771 483.631 892.201 488.951C897.631 494.271 900.341 500.841 900.341 508.661C900.341 516.481 897.631 523.051 892.201 528.371ZM863.001 517.861C865.451 520.311 868.531 521.531 872.271 521.531C876.011 521.531 879.092 520.311 881.542 517.861C883.992 515.411 885.211 512.351 885.211 508.671C885.211 504.991 883.982 501.921 881.542 499.481C879.092 497.031 876.011 495.811 872.271 495.811C868.531 495.811 865.451 497.031 863.001 499.481C860.551 501.931 859.331 504.991 859.331 508.671C859.331 512.351 860.551 515.411 863.001 517.861Z" fill="#304FFE"/>
<path d="M937.112 536.36C929.142 536.36 922.542 533.71 917.292 528.42C912.042 523.12 909.422 516.54 909.422 508.67C909.422 500.8 912.042 494.22 917.292 488.92C922.542 483.62 929.142 480.98 937.112 480.98C942.002 480.98 946.522 482.141 950.652 484.461C954.792 486.781 958.022 489.911 960.342 493.841L947.182 501.41C946.322 499.7 944.992 498.33 943.172 497.32C941.352 496.31 939.332 495.81 937.112 495.81C933.382 495.81 930.352 497.02 928.032 499.44C925.712 501.86 924.552 504.94 924.552 508.67C924.552 512.4 925.712 515.481 928.032 517.901C930.352 520.321 933.372 521.531 937.112 521.531C939.382 521.531 941.412 521.031 943.202 520.021C944.992 519.011 946.312 517.63 947.172 515.86L960.332 523.43C958.012 527.42 954.782 530.571 950.642 532.891C946.522 535.201 942.002 536.36 937.112 536.36Z" fill="#304FFE"/>
<path d="M1007.25 482.182V496.862H994.761V535.152H979.631V496.862H967.141V482.182H1007.25Z" fill="#304FFE"/>
<path d="M1043.95 535.152L1042.13 528.342H1026.84L1025.03 535.152H1008.76L1025.63 482.182H1043.34L1060.22 535.152H1043.95ZM1030.11 516.232H1038.89L1034.5 499.962L1030.11 516.232Z" fill="#304FFE"/>
<path d="M1102.59 507.83C1107.13 510.4 1109.4 514.31 1109.4 519.56C1109.4 524.4 1107.83 528.21 1104.67 530.98C1101.52 533.76 1096.94 535.14 1090.94 535.14H1068.54V482.17H1089.58C1095.53 482.17 1100.07 483.46 1103.2 486.03C1106.33 488.6 1107.89 492.28 1107.89 497.08C1107.88 501.68 1106.12 505.26 1102.59 507.83ZM1088.67 495.2H1083.67V502.31L1089.5 502.23C1091.67 501.93 1092.76 500.77 1092.76 498.75C1092.76 497.59 1092.35 496.71 1091.54 496.1C1090.74 495.5 1089.78 495.2 1088.67 495.2ZM1090.03 522.13C1091.24 522.13 1092.24 521.78 1093.05 521.07C1093.86 520.36 1094.26 519.46 1094.26 518.35C1094.26 516.23 1093.13 515 1090.86 514.64L1083.67 514.56V522.13H1090.03Z" fill="#304FFE"/>
<path d="M1164.7 535.152H1147.91L1134.74 512.452V535.152H1119.61V482.182H1134.74V503.372L1147.15 482.182H1163.95L1148.21 507.912L1164.7 535.152Z" fill="#304FFE"/>
<path d="M1205.94 535.152L1204.12 528.342H1188.83L1187.02 535.152H1170.75L1187.62 482.182H1205.33L1222.21 535.152H1205.94ZM1192.09 516.232H1200.87L1196.48 499.962L1192.09 516.232Z" fill="#304FFE"/>
</svg>
